<svg width="465" height="169" viewBox="0 0 465 169" fill="none" xmlns="http://www.w3.org/2000/svg">
<path d="M155.98 0.0100098C156 2.11001 155.3 3.84001 154.82 5.62001C154.6 6.46001 153.84 7.32001 154.53 8.23001C155.16 9.07001 155.74 10.07 156.6 10.58C158.34 11.63 159.1 13.24 159.85 14.97C160.5 16.45 161.15 17.96 162.75 18.79C163.73 19.31 163.92 20.02 163.5 21.14C162.76 23.08 161.86 24.98 160 26.1C159.31 26.51 158.4 26.6 157.58 26.74C156.88 26.87 156.13 26.77 155.45 26.96C155.01 27.08 154.47 27.46 154.31 27.85C153.66 29.48 153.75 31.05 154.95 32.48C156.19 33.95 157.42 35.43 158.56 36.98C159.42 38.15 159.78 39.54 159.83 41.01C159.94 44.37 160.05 47.72 160.18 51.08C160.25 52.89 160.93 54.43 162.25 55.72C163.46 56.91 164.56 58.29 164.85 59.97C165.13 61.58 165.09 63.26 165.03 64.91C164.99 66.25 164.73 67.58 164.54 68.9C164.25 70.99 164.06 73.1 163.6 75.15C162.98 77.93 162.25 80.69 161.36 83.4C160.67 85.5 159.65 87.49 157.44 88.47C156.93 88.69 156.36 88.85 155.81 88.87C151.77 88.97 147.73 89.03 143.69 89.09C139.53 89.15 135.37 89.2 131.21 89.27C127.24 89.34 123.41 88.71 119.88 86.84C115.21 84.35 112.42 80.39 111.13 75.29C110.47 72.67 110.15 70.02 110.31 67.35C110.45 64.99 110.8 62.63 111.17 60.29C111.47 58.39 111.85 56.5 112.38 54.65C112.99 52.51 113.77 50.42 114.54 48.33C115.39 45.99 116.14 43.64 116.44 41.14C116.77 38.42 116.48 35.89 114.84 33.63C113.79 32.18 112.29 31.52 110.56 31.3C110.16 31.25 109.74 31.28 109.34 31.3C108.26 31.35 107.44 31.77 107.03 32.86C106.31 34.77 104.64 35.04 103.28 34.27C102.44 33.79 101.73 31.87 101.98 30.94C102.57 28.69 104.01 27.28 106.19 26.53C109.23 25.49 112.28 25.53 115.26 26.63C117.53 27.46 119.11 29.18 120.26 31.28C122.11 34.65 122.46 38.32 122.16 42.05C121.9 45.17 120.79 48.12 119.66 51.02C118.34 54.4 117.25 57.84 116.63 61.42C116.09 64.5 115.84 67.64 116.12 70.75C116.4 73.93 117.38 76.94 119.62 79.34C121.22 81.06 123.31 82.07 125.54 82.73C126.94 83.14 128.38 83.42 129.97 83.8C129.23 81.98 128.54 80.4 127.95 78.79C126.95 76.07 126.24 73.29 126.03 70.37C125.86 67.92 126.22 65.54 126.58 63.14C126.99 60.42 127.63 57.75 128.96 55.33C129.67 54.04 130.65 52.89 131.61 51.76C132.11 51.17 132.41 50.63 132.37 49.84C132.31 48.5 132.35 47.16 132.36 45.82C132.36 42.4 132.9 39.06 133.56 35.71C134.47 31.05 135.88 26.54 137.46 22.08C139.12 17.41 141.35 13.09 145.11 9.67001C147.5 7.50001 149.74 5.17001 152.07 2.93001C152.92 2.12001 153.83 1.36001 154.74 0.62001C155.05 0.37001 155.47 0.25 156 0L155.98 0.0100098Z" fill="white"/>
<path d="M20.4601 35.6201V87.3601H0.0500488V3.32007H18.3L44.4701 38.9801L70.7601 3.32007H89.1301V87.3601H68.6001V35.6201L49.1501 62.7501H39.9101L20.4601 35.6201Z" fill="white"/>
<path d="M177.42 77.16L186.3 62.27C194.58 68.03 202.87 70.79 211.99 70.79C220.39 70.79 225.2 68.15 225.2 63.47C225.2 58.79 220.76 56.27 208.15 52.78C189.66 47.86 180.9 40.05 180.9 26.37C180.9 12.69 192.31 2.23999 211.75 2.23999C223.88 2.23999 235.04 6.08 243.8 12.56L234.8 26.97C229.04 22.53 220.27 19.53 212.47 19.53C205.63 19.53 201.3 22.05 201.3 26.13C201.3 30.21 204.78 32.73 217.27 36.34C236.84 41.74 245.96 49.91 245.96 63.35C245.96 78.36 232.63 88.44 212.46 88.44C199.49 88.44 186.89 84.36 177.4 77.15L177.42 77.16Z" fill="white"/>
<path d="M257.98 3.32007H278.63V87.3601H257.98V3.32007Z" fill="white"/>
<path d="M295.67 3.32007H312.36L349.82 53.0201V3.32007H369.63V87.3601H352.82L315.48 37.7801V87.3601H295.67V3.32007Z" fill="white"/>
<path d="M382.59 45.34C382.59 20.25 400.72 1.76001 426.89 1.76001C439.62 1.76001 451.26 6.08001 460.75 14.73L449.71 28.3C443.95 22.78 435.78 19.9 427.86 19.9C413.09 19.9 403.13 30.47 403.13 45.35C403.13 60.23 412.97 70.8 428.82 70.8C435.18 70.8 441.55 69.24 447.07 66V55.08H423.42V39.35H464.48V75.37C455 84.37 441.55 88.94 427.86 88.94C400.73 88.94 382.6 71.05 382.6 45.36L382.59 45.34Z" fill="white"/>
<path d="M0 99.26H27.17C43.63 99.26 53.56 108.61 53.56 123.7C53.56 138.79 43.63 148.15 27.17 148.15H16.75V167.43H0V99.26ZM25.42 134.32C32.53 134.32 36.72 130.42 36.72 123.9C36.72 117.38 32.53 113.48 25.42 113.48H16.46V134.32H25.42Z" fill="white"/>
<path d="M61.8401 140.55V99.26H78.5901V139.19C78.5901 148.44 82.8801 153.31 91.0601 153.31C99.2401 153.31 103.53 148.44 103.53 139.19V99.26H120.28V140.55C120.28 158.18 109.08 168.6 91.0601 168.6C73.0401 168.6 61.8401 158.18 61.8401 140.55Z" fill="white"/>
<path d="M133.51 99.26H162.14C177.92 99.26 188.24 108.51 188.24 122.34C188.24 132.08 183.57 139.29 175.29 142.89L190.39 167.43H172.18L159.32 145.42H150.26V167.43H133.51V99.26ZM160.49 132.76C167.6 132.76 171.5 129.16 171.5 122.92C171.5 116.68 167.6 112.99 160.49 112.99H149.97V132.76H160.49Z" fill="white"/>
<path d="M199.74 99.26H228.37C244.15 99.26 254.47 108.51 254.47 122.34C254.47 132.08 249.8 139.29 241.52 142.89L256.62 167.43H238.41L225.55 145.42H216.49V167.43H199.74V99.26ZM226.72 132.76C233.83 132.76 237.73 129.16 237.73 122.92C237.73 116.68 233.83 112.99 226.72 112.99H216.2V132.76H226.72Z" fill="white"/>
<path d="M259.63 159.15L266.84 147.07C273.56 151.74 280.28 153.98 287.68 153.98C294.5 153.98 298.39 151.84 298.39 148.04C298.39 144.24 294.79 142.2 284.56 139.37C269.56 135.38 262.45 129.05 262.45 117.94C262.45 106.83 271.7 98.3601 287.48 98.3601C297.32 98.3601 306.37 101.48 313.48 106.74L306.18 118.43C301.51 114.83 294.4 112.39 288.07 112.39C282.52 112.39 279.01 114.44 279.01 117.75C279.01 121.06 281.83 123.11 291.96 126.03C307.83 130.41 315.24 137.04 315.24 147.94C315.24 160.11 304.43 168.29 288.07 168.29C277.55 168.29 267.33 164.98 259.63 159.14V159.15Z" fill="white"/>
<path d="M321.27 133.34C321.27 112.89 336.66 97.9902 357.6 97.9902C378.54 97.9902 393.93 112.89 393.93 133.34C393.93 153.79 378.74 168.69 357.6 168.69C336.46 168.69 321.27 153.79 321.27 133.34ZM357.6 153.4C368.9 153.4 376.88 145.12 376.88 133.34C376.88 121.56 368.89 113.28 357.6 113.28C346.31 113.28 338.41 121.56 338.41 133.34C338.41 145.12 346.4 153.4 357.6 153.4Z" fill="white"/>
<path d="M404.54 99.26H418.08L448.47 139.58V99.26H464.54V167.43H450.91L420.62 127.21V167.43H404.55V99.26H404.54Z" fill="white"/>
<path d="M112.53 17.01C116.396 17.01 119.53 13.876 119.53 10.01C119.53 6.14402 116.396 3.01001 112.53 3.01001C108.664 3.01001 105.53 6.14402 105.53 10.01C105.53 13.876 108.664 17.01 112.53 17.01Z" fill="white"/>
</svg>
